# xmcd
#
# Track frame offsets:
#	150
#	10373
#	25076
#	39346
#	58777
#	76261
#	89194
#	105767
#	122778
#	138352
#	154061
#	166065
#
# Disc length: 2340 seconds
#
# Revision: 1
# Processed by: cddbd v1.5.2PL0 Copyright (c) Steve Scherf et al.
# Submitted via: audiograbber 1.83.01
#
DISCID=8c09220c
DTITLE=Joey Sloan - Soldiers Of The Coal
DYEAR=2000
DGENRE=Country
TTITLE0=Funny You Should Mention That
TTITLE1=See The Big Man Cry
TTITLE2=If You´re Looking For A Fool
TTITLE3=Ghost Station
TTITLE4=Tears Will Fall
TTITLE5=Daytime, Nightime Cafe
TTITLE6=Somewhere Off On Shore
TTITLE7=Soldiers Of The Coal
TTITLE8=It Takes One To Know A Fool
TTITLE9=Blue Moon
TTITLE10=California Grapes
TTITLE11=I Haven´t Got The Heart To Say Goodbye
EXTD=
EXTT0=
EXTT1=
EXTT2=
EXTT3=
EXTT4=
EXTT5=
EXTT6=
EXTT7=
EXTT8=
EXTT9=
EXTT10=
EXTT11=
PLAYORDER=
